<svg class="main-svg" xmlns="http://www.w3.org/2000/svg" xmlns:xlink="http://www.w3.org/1999/xlink" width="900" height="450" style="" viewBox="0 0 900 450"><rect x="0" y="0" width="900" height="450" style="fill: rgb(255, 255, 255); fill-opacity: 1;"/><defs id="defs-3a08d8"><g class="clips"><clipPath id="clip3a08d8polar-for-traces"><path d="M163,0A163,163 0,1,0 -163,-1.9961742826101858e-14A163,163 0,1,0 163,3.9923485652203715e-14Z" transform="translate(163,163)"/></clipPath></g><g class="gradients"/><g class="patterns"/></defs><g class="bglayer"/><g class="layer-below"><g class="imagelayer"/><g class="shapelayer"/></g><g class="cartesianlayer"/><g class="polarlayer"><g class="polar"><g class="polarsublayer draglayer"/><g class="polarsublayer plotbg"><path d="M163,0A163,163 0,1,0 -163,-1.9961742826101858e-14A163,163 0,1,0 163,3.9923485652203715e-14Z" transform="translate(450,213)" style="fill: rgb(255, 255, 255); fill-opacity: 1;"/></g><g class="polarsublayer backplot"><g class="maplayer"/></g><g class="polarsublayer angular-grid" style="fill: none;"><path class="angularaxisgrid" d="M450,213L613,213" style="stroke: rgb(235, 240, 248); stroke-opacity: 1; stroke-width: 1px;"/><path class="angularaxisgrid" d="M450,213L450,50" style="stroke: rgb(235, 240, 248); stroke-opacity: 1; stroke-width: 1px;"/><path class="angularaxisgrid" d="M450,213L287,212.99999999999997" style="stroke: rgb(235, 240, 248); stroke-opacity: 1; stroke-width: 1px;"/><path class="angularaxisgrid" d="M450,213L449.99999999999994,376" style="stroke: rgb(235, 240, 248); stroke-opacity: 1; stroke-width: 1px;"/></g><g class="polarsublayer radial-grid" transform="translate(450,213)" style="fill: none;"><path class="xgrid" d="M20.11,0A20.11,20.11 0,1,0 -20.11,-2.462764713085327e-15A20.11,20.11 0,1,0 20.11,4.925529426170654e-15Z" style="stroke: rgb(235, 240, 248); stroke-opacity: 1; stroke-width: 1px;"/><path class="xgrid" d="M40.22,0A40.22,40.22 0,1,0 -40.22,-4.925529426170654e-15A40.22,40.22 0,1,0 40.22,9.851058852341308e-15Z" style="stroke: rgb(235, 240, 248); stroke-opacity: 1; stroke-width: 1px;"/><path class="xgrid" d="M60.33,0A60.33,60.33 0,1,0 -60.33,-7.388294139255981e-15A60.33,60.33 0,1,0 60.33,1.4776588278511962e-14Z" style="stroke: rgb(235, 240, 248); stroke-opacity: 1; stroke-width: 1px;"/><path class="xgrid" d="M80.44,0A80.44,80.44 0,1,0 -80.44,-9.851058852341308e-15A80.44,80.44 0,1,0 80.44,1.9702117704682616e-14Z" style="stroke: rgb(235, 240, 248); stroke-opacity: 1; stroke-width: 1px;"/><path class="xgrid" d="M100.55,0A100.55,100.55 0,1,0 -100.55,-1.2313823565426637e-14A100.55,100.55 0,1,0 100.55,2.4627647130853274e-14Z" style="stroke: rgb(235, 240, 248); stroke-opacity: 1; stroke-width: 1px;"/><path class="xgrid" d="M120.66,0A120.66,120.66 0,1,0 -120.66,-1.4776588278511962e-14A120.66,120.66 0,1,0 120.66,2.9553176557023925e-14Z" style="stroke: rgb(235, 240, 248); stroke-opacity: 1; stroke-width: 1px;"/><path class="xgrid" d="M140.77,0A140.77,140.77 0,1,0 -140.77,-1.723935299159729e-14A140.77,140.77 0,1,0 140.77,3.447870598319458e-14Z" style="stroke: rgb(235, 240, 248); stroke-opacity: 1; stroke-width: 1px;"/><path class="xgrid" d="M160.88,0A160.88,160.88 0,1,0 -160.88,-1.9702117704682616e-14A160.88,160.88 0,1,0 160.88,3.940423540936523e-14Z" style="stroke: rgb(235, 240, 248); stroke-opacity: 1; stroke-width: 1px;"/></g><g class="polarsublayer frontplot" transform="translate(287,50)" clip-path="url(#clip3a08d8polar-for-traces)"><g class="barlayer"><g class="trace bars" style="opacity: 1;"><g class="points"><g class="point" style="vector-effect: none; stroke-miterlimit: 2;"><path d="M0,0Z" style="opacity: 1; stroke-width: 0.5px; fill: rgb(51, 133, 141); fill-opacity: 1; stroke: rgb(255, 255, 255); stroke-opacity: 1;"/></g><g class="point" style="vector-effect: none; stroke-miterlimit: 2;"><path d="M163,163L164.18205904308428,161.37303530416935A2.011038961038961,2.011038961038961 0,0,0 161.81794095691572,161.37303530416935L163,163A0,0 0,0,1 163,163Z" style="opacity: 1; stroke-width: 0.5px; fill: rgb(51, 133, 141); fill-opacity: 1; stroke: rgb(255, 255, 255); stroke-opacity: 1;"/></g><g class="point" style="vector-effect: none; stroke-miterlimit: 2;"><path d="M163,163L161.37303530416935,161.81794095691572A2.011038961038961,2.011038961038961 0,0,0 161.37303530416935,164.18205904308428L163,163A0,0 0,0,1 163,163Z" style="opacity: 1; stroke-width: 0.5px; fill: rgb(51, 133, 141); fill-opacity: 1; stroke: rgb(255, 255, 255); stroke-opacity: 1;"/></g><g class="point" style="vector-effect: none; stroke-miterlimit: 2;"><path d="M163,163L161.81794095691572,164.62696469583065A2.011038961038961,2.011038961038961 0,0,0 164.18205904308428,164.62696469583065L163,163A0,0 0,0,1 163,163Z" style="opacity: 1; stroke-width: 0.5px; fill: rgb(51, 133, 141); fill-opacity: 1; stroke: rgb(255, 255, 255); stroke-opacity: 1;"/></g></g></g><g class="trace bars" style="opacity: 1;"><g class="points"><g class="point" style="vector-effect: none; stroke-miterlimit: 2;"><path d="M0,0Z" style="opacity: 1; stroke-width: 0.5px; fill: rgb(193, 65, 104); fill-opacity: 1; stroke: rgb(255, 255, 255); stroke-opacity: 1;"/></g><g class="point" style="vector-effect: none; stroke-miterlimit: 2;"><path d="M164.18205904308428,161.37303530416935L254.01854631748947,37.72371842103939A154.85,154.85 0,0,0 71.98145368251056,37.72371842103939L161.81794095691572,161.37303530416935A2.011038961038961,2.011038961038961 0,0,1 164.18205904308428,161.37303530416935Z" style="opacity: 1; stroke-width: 0.5px; fill: rgb(193, 65, 104); fill-opacity: 1; stroke: rgb(255, 255, 255); stroke-opacity: 1;"/></g><g class="point" style="vector-effect: none; stroke-miterlimit: 2;"><path d="M161.37303530416935,161.81794095691572L39.35068311687007,73.1635127255948A152.83896103896103,152.83896103896103 0,0,0 39.350683116870044,252.83648727440516L161.37303530416935,164.18205904308428A2.011038961038961,2.011038961038961 0,0,1 161.37303530416935,161.81794095691572Z" style="opacity: 1; stroke-width: 0.5px; fill: rgb(193, 65, 104); fill-opacity: 1; stroke: rgb(255, 255, 255); stroke-opacity: 1;"/></g><g class="point" style="vector-effect: none; stroke-miterlimit: 2;"><path d="M161.81794095691572,164.62696469583065L139.35881913831443,195.53929391661313A40.22077922077922,40.22077922077922 0,0,0 186.64118086168557,195.53929391661316L164.18205904308428,164.62696469583065A2.011038961038961,2.011038961038961 0,0,1 161.81794095691572,164.62696469583065Z" style="opacity: 1; stroke-width: 0.5px; fill: rgb(193, 65, 104); fill-opacity: 1; stroke: rgb(255, 255, 255); stroke-opacity: 1;"/></g></g></g></g><g class="scatterlayer"/></g><g class="polarsublayer angular-line"><path d="M163,0A163,163 0,1,0 -163,-1.9961742826101858e-14A163,163 0,1,0 163,3.9923485652203715e-14Z" transform="translate(450,213)" stroke-width="1" style="fill: none; stroke: rgb(235, 240, 248); stroke-opacity: 1;"/></g><g class="polarsublayer radial-line"><line x1="0" y1="0" x2="163" y2="0" transform="translate(450,213)" stroke-width="1" style="fill: none; stroke: rgb(235, 240, 248); stroke-opacity: 1;"/></g><g class="polarsublayer angular-axis"><g class="angularaxistick"><text text-anchor="start" x="2.9000000000000004" y="4.199999999999999" transform="translate(613,213)" style="font-family: 'Open Sans', verdana, arial, sans-serif; font-size: 12px; fill: rgb(42, 63, 95); fill-opacity: 1; white-space: pre; opacity: 1;">Night</text></g><g class="angularaxistick"><text text-anchor="middle" x="1.7757378587636624e-16" y="-5.300000000000001" transform="translate(450,50)" style="font-family: 'Open Sans', verdana, arial, sans-serif; font-size: 12px; fill: rgb(42, 63, 95); fill-opacity: 1; white-space: pre; opacity: 1;">Morning</text></g><g class="angularaxistick"><text text-anchor="end" x="-2.9000000000000004" y="4.199999999999998" transform="translate(287,212.99999999999997)" style="font-family: 'Open Sans', verdana, arial, sans-serif; font-size: 12px; fill: rgb(42, 63, 95); fill-opacity: 1; white-space: pre; opacity: 1;">Afternoon</text></g><g class="angularaxistick"><text text-anchor="middle" x="-5.327213576290987e-16" y="14.9" transform="translate(449.99999999999994,376)" style="font-family: 'Open Sans', verdana, arial, sans-serif; font-size: 12px; fill: rgb(42, 63, 95); fill-opacity: 1; white-space: pre; opacity: 1;">Evening</text></g></g><g class="polarsublayer radial-axis" transform="translate(450,213)"><g class="xtick"><text text-anchor="middle" x="0" y="14.9" transform="" style="font-family: 'Open Sans', verdana, arial, sans-serif; font-size: 12px; fill: rgb(42, 63, 95); fill-opacity: 1; white-space: pre; opacity: 1;">0</text></g><g class="xtick"><text text-anchor="middle" x="0" y="14.9" transform="translate(20.11,0)" style="font-family: 'Open Sans', verdana, arial, sans-serif; font-size: 12px; fill: rgb(42, 63, 95); fill-opacity: 1; white-space: pre; opacity: 1;">10</text></g><g class="xtick"><text text-anchor="middle" x="0" y="14.9" transform="translate(40.22,0)" style="font-family: 'Open Sans', verdana, arial, sans-serif; font-size: 12px; fill: rgb(42, 63, 95); fill-opacity: 1; white-space: pre; opacity: 1;">20</text></g><g class="xtick"><text text-anchor="middle" x="0" y="14.9" transform="translate(60.33,0)" style="font-family: 'Open Sans', verdana, arial, sans-serif; font-size: 12px; fill: rgb(42, 63, 95); fill-opacity: 1; white-space: pre; opacity: 1;">30</text></g><g class="xtick"><text text-anchor="middle" x="0" y="14.9" transform="translate(80.44,0)" style="font-family: 'Open Sans', verdana, arial, sans-serif; font-size: 12px; fill: rgb(42, 63, 95); fill-opacity: 1; white-space: pre; opacity: 1;">40</text></g><g class="xtick"><text text-anchor="middle" x="0" y="14.9" transform="translate(100.55,0)" style="font-family: 'Open Sans', verdana, arial, sans-serif; font-size: 12px; fill: rgb(42, 63, 95); fill-opacity: 1; white-space: pre; opacity: 1;">50</text></g><g class="xtick"><text text-anchor="middle" x="0" y="14.9" transform="translate(120.66,0)" style="font-family: 'Open Sans', verdana, arial, sans-serif; font-size: 12px; fill: rgb(42, 63, 95); fill-opacity: 1; white-space: pre; opacity: 1;">60</text></g><g class="xtick"><text text-anchor="middle" x="0" y="14.9" transform="translate(140.77,0)" style="font-family: 'Open Sans', verdana, arial, sans-serif; font-size: 12px; fill: rgb(42, 63, 95); fill-opacity: 1; white-space: pre; opacity: 1;">70</text></g><g class="xtick"><text text-anchor="middle" x="0" y="14.9" transform="translate(160.88,0)" style="font-family: 'Open Sans', verdana, arial, sans-serif; font-size: 12px; fill: rgb(42, 63, 95); fill-opacity: 1; white-space: pre; opacity: 1;">80</text></g></g></g></g><g class="smithlayer"/><g class="ternarylayer"/><g class="geolayer"/><g class="funnelarealayer"/><g class="pielayer"/><g class="iciclelayer"/><g class="treemaplayer"/><g class="sunburstlayer"/><g class="glimages"/><defs id="topdefs-3a08d8"><g class="clips"/><clipPath id="legend3a08d8"><rect width="163" height="29" x="0" y="0"/></clipPath></defs><g class="layer-above"><g class="imagelayer"/><g class="shapelayer"/></g><g class="infolayer"><g class="legend" pointer-events="all" transform="translate(368.5,408.6)"><rect class="bg" shape-rendering="crispEdges" width="163" height="29" x="0" y="0" style="stroke: rgb(68, 68, 68); stroke-opacity: 1; fill: rgb(255, 255, 255); fill-opacity: 1; stroke-width: 0px;"/><g class="scrollbox" transform="" clip-path="url(#legend3a08d8)"><g class="groups"><g class="traces" transform="translate(0,14.5)" style="opacity: 1;"><text class="legendtext" text-anchor="start" x="40" y="4.680000000000001" style="font-family: 'Open Sans', verdana, arial, sans-serif; font-size: 12px; fill: rgb(42, 63, 95); fill-opacity: 1; white-space: pre;">New</text><g class="layers" style="opacity: 1;"><g class="legendfill"/><g class="legendlines"/><g class="legendsymbols"><g class="legendpoints"><path class="legendundefined" d="M6,6H-6V-6H6Z" transform="translate(20,0)" style="stroke-width: 0.5px; fill: rgb(51, 133, 141); fill-opacity: 1; stroke: rgb(255, 255, 255); stroke-opacity: 1;"/></g></g></g><rect class="legendtoggle" x="0" y="-9.5" width="68.859375" height="19" style="fill: rgb(0, 0, 0); fill-opacity: 0;"/></g><g class="traces" transform="translate(71.359375,14.5)" style="opacity: 1;"><text class="legendtext" text-anchor="start" x="40" y="4.680000000000001" style="font-family: 'Open Sans', verdana, arial, sans-serif; font-size: 12px; fill: rgb(42, 63, 95); fill-opacity: 1; white-space: pre;">Already</text><g class="layers" style="opacity: 1;"><g class="legendfill"/><g class="legendlines"/><g class="legendsymbols"><g class="legendpoints"><path class="legendundefined" d="M6,6H-6V-6H6Z" transform="translate(20,0)" style="stroke-width: 0.5px; fill: rgb(193, 65, 104); fill-opacity: 1; stroke: rgb(255, 255, 255); stroke-opacity: 1;"/></g></g></g><rect class="legendtoggle" x="0" y="-9.5" width="88.171875" height="19" style="fill: rgb(0, 0, 0); fill-opacity: 0;"/></g></g></g><rect class="scrollbar" rx="20" ry="3" width="0" height="0" x="0" y="0" style="fill: rgb(128, 139, 164); fill-opacity: 1;"/></g><g class="g-gtitle"><text class="gtitle" x="45" y="25" text-anchor="start" dy="0em" style="opacity: 1; font-family: 'Open Sans', verdana, arial, sans-serif; font-size: 17px; fill: rgb(42, 63, 95); fill-opacity: 1; white-space: pre;">Congestion Events by Time-of-Day (Rose Chart)</text></g><g class="g-polartitle"/></g></svg>