<svg class="main-svg" xmlns="http://www.w3.org/2000/svg" xmlns:xlink="http://www.w3.org/1999/xlink" width="900" height="450" style="" viewBox="0 0 900 450"><rect x="0" y="0" width="900" height="450" style="fill: rgb(255, 255, 255); fill-opacity: 1;"/><defs id="defs-41e9f1"><g class="clips"><clipPath id="clip41e9f1polar-for-traces"><path d="M163,0A163,163 0,1,0 -163,-1.9961742826101858e-14A163,163 0,1,0 163,3.9923485652203715e-14Z" transform="translate(163,163)"/></clipPath></g><g class="gradients"/><g class="patterns"/></defs><g class="bglayer"/><g class="layer-below"><g class="imagelayer"/><g class="shapelayer"/></g><g class="cartesianlayer"/><g class="polarlayer"><g class="polar"><g class="polarsublayer draglayer"/><g class="polarsublayer plotbg"><path d="M163,0A163,163 0,1,0 -163,-1.9961742826101858e-14A163,163 0,1,0 163,3.9923485652203715e-14Z" transform="translate(450,213)" style="fill: rgb(255, 255, 255); fill-opacity: 1;"/></g><g class="polarsublayer backplot"><g class="maplayer"/></g><g class="polarsublayer angular-grid" style="fill: none;"><path class="angularaxisgrid" d="M450,213L613,213" style="stroke: rgb(235, 240, 248); stroke-opacity: 1; stroke-width: 1px;"/><path class="angularaxisgrid" d="M450,213L450,50" style="stroke: rgb(235, 240, 248); stroke-opacity: 1; stroke-width: 1px;"/><path class="angularaxisgrid" d="M450,213L287,212.99999999999997" style="stroke: rgb(235, 240, 248); stroke-opacity: 1; stroke-width: 1px;"/><path class="angularaxisgrid" d="M450,213L449.99999999999994,376" style="stroke: rgb(235, 240, 248); stroke-opacity: 1; stroke-width: 1px;"/></g><g class="polarsublayer radial-grid" transform="translate(450,213)" style="fill: none;"><path class="xgrid" d="M22.91,0A22.91,22.91 0,1,0 -22.91,-2.805665816846586e-15A22.91,22.91 0,1,0 22.91,5.611331633693172e-15Z" style="stroke: rgb(235, 240, 248); stroke-opacity: 1; stroke-width: 1px;"/><path class="xgrid" d="M45.81,0A45.81,45.81 0,1,0 -45.81,-5.6101069868940256e-15A45.81,45.81 0,1,0 45.81,1.1220213973788051e-14Z" style="stroke: rgb(235, 240, 248); stroke-opacity: 1; stroke-width: 1px;"/><path class="xgrid" d="M68.72,0A68.72,68.72 0,1,0 -68.72,-8.41577280374061e-15A68.72,68.72 0,1,0 68.72,1.683154560748122e-14Z" style="stroke: rgb(235, 240, 248); stroke-opacity: 1; stroke-width: 1px;"/><path class="xgrid" d="M91.63,0A91.63,91.63 0,1,0 -91.63,-1.1221438620587196e-14A91.63,91.63 0,1,0 91.63,2.2442877241174393e-14Z" style="stroke: rgb(235, 240, 248); stroke-opacity: 1; stroke-width: 1px;"/><path class="xgrid" d="M114.53,0A114.53,114.53 0,1,0 -114.53,-1.4025879790634637e-14A114.53,114.53 0,1,0 114.53,2.8051759581269274e-14Z" style="stroke: rgb(235, 240, 248); stroke-opacity: 1; stroke-width: 1px;"/><path class="xgrid" d="M137.44,0A137.44,137.44 0,1,0 -137.44,-1.683154560748122e-14A137.44,137.44 0,1,0 137.44,3.366309121496244e-14Z" style="stroke: rgb(235, 240, 248); stroke-opacity: 1; stroke-width: 1px;"/><path class="xgrid" d="M160.35,0A160.35,160.35 0,1,0 -160.35,-1.9637211424327807e-14A160.35,160.35 0,1,0 160.35,3.9274422848655614e-14Z" style="stroke: rgb(235, 240, 248); stroke-opacity: 1; stroke-width: 1px;"/></g><g class="polarsublayer frontplot" transform="translate(287,50)" clip-path="url(#clip41e9f1polar-for-traces)"><g class="barlayer"><g class="trace bars" style="opacity: 1;"><g class="points"><g class="point" style="vector-effect: none; stroke-miterlimit: 2;"><path d="M0,0Z" style="opacity: 1; stroke-width: 0.5px; fill: rgb(51, 133, 141); fill-opacity: 1; stroke: rgb(255, 255, 255); stroke-opacity: 1;"/></g><g class="point" style="vector-effect: none; stroke-miterlimit: 2;"><path d="M163,163L164.61571383995545,160.77616068203028A2.7488165680473373,2.7488165680473373 0,0,0 161.38428616004455,160.77616068203028L163,163A0,0 0,0,1 163,163Z" style="opacity: 1; stroke-width: 0.5px; fill: rgb(51, 133, 141); fill-opacity: 1; stroke: rgb(255, 255, 255); stroke-opacity: 1;"/></g><g class="point" style="vector-effect: none; stroke-miterlimit: 2;"><path d="M163,163L155.216562387106,157.345001560156A9.620857988165682,9.620857988165682 0,0,0 155.216562387106,168.654998439844L163,163A0,0 0,0,1 163,163Z" style="opacity: 1; stroke-width: 0.5px; fill: rgb(51, 133, 141); fill-opacity: 1; stroke: rgb(255, 255, 255); stroke-opacity: 1;"/></g><g class="point" style="vector-effect: none; stroke-miterlimit: 2;"><path d="M163,163L153.57500260025998,175.97239602149A16.034763313609467,16.034763313609467 0,0,0 172.42499739974002,175.97239602149L163,163A0,0 0,0,1 163,163Z" style="opacity: 1; stroke-width: 0.5px; fill: rgb(51, 133, 141); fill-opacity: 1; stroke: rgb(255, 255, 255); stroke-opacity: 1;"/></g></g></g><g class="trace bars" style="opacity: 1;"><g class="points"><g class="point" style="vector-effect: none; stroke-miterlimit: 2;"><path d="M0,0Z" style="opacity: 1; stroke-width: 0.5px; fill: rgb(193, 65, 104); fill-opacity: 1; stroke: rgb(255, 255, 255); stroke-opacity: 1;"/></g><g class="point" style="vector-effect: none; stroke-miterlimit: 2;"><path d="M164.61571383995545,160.77616068203028L205.00855983884128,105.1801777327874A71.46923076923078,71.46923076923078 0,0,0 120.99144016115872,105.1801777327874L161.38428616004455,160.77616068203028A2.7488165680473373,2.7488165680473373 0,0,1 164.61571383995545,160.77616068203028Z" style="opacity: 1; stroke-width: 0.5px; fill: rgb(193, 65, 104); fill-opacity: 1; stroke: rgb(255, 255, 255); stroke-opacity: 1;"/></g><g class="point" style="vector-effect: none; stroke-miterlimit: 2;"><path d="M155.216562387106,157.345001560156L37.72371842103941,71.98145368251052A154.85,154.85 0,0,0 37.72371842103939,254.01854631748944L155.216562387106,168.654998439844A9.620857988165682,9.620857988165682 0,0,1 155.216562387106,157.345001560156Z" style="opacity: 1; stroke-width: 0.5px; fill: rgb(193, 65, 104); fill-opacity: 1; stroke: rgb(255, 255, 255); stroke-opacity: 1;"/></g><g class="point" style="vector-effect: none; stroke-miterlimit: 2;"><path d="M153.57500260025998,175.97239602149L124.49215348106213,216.00150374494487A65.51346153846154,65.51346153846154 0,0,0 201.50784651893784,216.0015037449449L172.42499739974002,175.97239602149A16.034763313609467,16.034763313609467 0,0,1 153.57500260025998,175.97239602149Z" style="opacity: 1; stroke-width: 0.5px; fill: rgb(193, 65, 104); fill-opacity: 1; stroke: rgb(255, 255, 255); stroke-opacity: 1;"/></g></g></g></g><g class="scatterlayer"/></g><g class="polarsublayer angular-line"><path d="M163,0A163,163 0,1,0 -163,-1.9961742826101858e-14A163,163 0,1,0 163,3.9923485652203715e-14Z" transform="translate(450,213)" stroke-width="1" style="fill: none; stroke: rgb(235, 240, 248); stroke-opacity: 1;"/></g><g class="polarsublayer radial-line"><line x1="0" y1="0" x2="163" y2="0" transform="translate(450,213)" stroke-width="1" style="fill: none; stroke: rgb(235, 240, 248); stroke-opacity: 1;"/></g><g class="polarsublayer angular-axis"><g class="angularaxistick"><text text-anchor="start" x="2.9000000000000004" y="4.199999999999999" transform="translate(613,213)" style="font-family: 'Open Sans', verdana, arial, sans-serif; font-size: 12px; fill: rgb(42, 63, 95); fill-opacity: 1; white-space: pre; opacity: 1;">Night</text></g><g class="angularaxistick"><text text-anchor="middle" x="1.7757378587636624e-16" y="-5.300000000000001" transform="translate(450,50)" style="font-family: 'Open Sans', verdana, arial, sans-serif; font-size: 12px; fill: rgb(42, 63, 95); fill-opacity: 1; white-space: pre; opacity: 1;">Morning</text></g><g class="angularaxistick"><text text-anchor="end" x="-2.9000000000000004" y="4.199999999999998" transform="translate(287,212.99999999999997)" style="font-family: 'Open Sans', verdana, arial, sans-serif; font-size: 12px; fill: rgb(42, 63, 95); fill-opacity: 1; white-space: pre; opacity: 1;">Afternoon</text></g><g class="angularaxistick"><text text-anchor="middle" x="-5.327213576290987e-16" y="14.9" transform="translate(449.99999999999994,376)" style="font-family: 'Open Sans', verdana, arial, sans-serif; font-size: 12px; fill: rgb(42, 63, 95); fill-opacity: 1; white-space: pre; opacity: 1;">Evening</text></g></g><g class="polarsublayer radial-axis" transform="translate(450,213)"><g class="xtick"><text text-anchor="start" x="0" y="14.9" transform=" rotate(90,0,8.9)" style="font-family: 'Open Sans', verdana, arial, sans-serif; font-size: 12px; fill: rgb(42, 63, 95); fill-opacity: 1; white-space: pre; opacity: 1;">0</text></g><g class="xtick"><text text-anchor="start" x="0" y="14.9" transform="translate(22.91,0) rotate(90,0,8.9)" style="font-family: 'Open Sans', verdana, arial, sans-serif; font-size: 12px; fill: rgb(42, 63, 95); fill-opacity: 1; white-space: pre; opacity: 1;">50</text></g><g class="xtick"><text text-anchor="start" x="0" y="14.9" transform="translate(45.81,0) rotate(90,0,8.9)" style="font-family: 'Open Sans', verdana, arial, sans-serif; font-size: 12px; fill: rgb(42, 63, 95); fill-opacity: 1; white-space: pre; opacity: 1;">100</text></g><g class="xtick"><text text-anchor="start" x="0" y="14.9" transform="translate(68.72,0) rotate(90,0,8.9)" style="font-family: 'Open Sans', verdana, arial, sans-serif; font-size: 12px; fill: rgb(42, 63, 95); fill-opacity: 1; white-space: pre; opacity: 1;">150</text></g><g class="xtick"><text text-anchor="start" x="0" y="14.9" transform="translate(91.63,0) rotate(90,0,8.9)" style="font-family: 'Open Sans', verdana, arial, sans-serif; font-size: 12px; fill: rgb(42, 63, 95); fill-opacity: 1; white-space: pre; opacity: 1;">200</text></g><g class="xtick"><text text-anchor="start" x="0" y="14.9" transform="translate(114.53,0) rotate(90,0,8.9)" style="font-family: 'Open Sans', verdana, arial, sans-serif; font-size: 12px; fill: rgb(42, 63, 95); fill-opacity: 1; white-space: pre; opacity: 1;">250</text></g><g class="xtick"><text text-anchor="start" x="0" y="14.9" transform="translate(137.44,0) rotate(90,0,8.9)" style="font-family: 'Open Sans', verdana, arial, sans-serif; font-size: 12px; fill: rgb(42, 63, 95); fill-opacity: 1; white-space: pre; opacity: 1;">300</text></g><g class="xtick"><text text-anchor="start" x="0" y="14.9" transform="translate(160.35,0) rotate(90,0,8.9)" style="font-family: 'Open Sans', verdana, arial, sans-serif; font-size: 12px; fill: rgb(42, 63, 95); fill-opacity: 1; white-space: pre; opacity: 1;">350</text></g></g></g></g><g class="smithlayer"/><g class="ternarylayer"/><g class="geolayer"/><g class="funnelarealayer"/><g class="pielayer"/><g class="iciclelayer"/><g class="treemaplayer"/><g class="sunburstlayer"/><g class="glimages"/><defs id="topdefs-41e9f1"><g class="clips"/><clipPath id="legend41e9f1"><rect width="302" height="29" x="0" y="0"/></clipPath></defs><g class="layer-above"><g class="imagelayer"/><g class="shapelayer"/></g><g class="infolayer"><g class="legend" pointer-events="all" transform="translate(299,408.6)"><rect class="bg" shape-rendering="crispEdges" width="302" height="29" x="0" y="0" style="stroke: rgb(68, 68, 68); stroke-opacity: 1; fill: rgb(255, 255, 255); fill-opacity: 1; stroke-width: 0px;"/><g class="scrollbox" transform="" clip-path="url(#legend41e9f1)"><g class="groups"><g class="traces" transform="translate(0,14.5)" style="opacity: 1;"><text class="legendtext" text-anchor="start" x="40" y="4.680000000000001" style="font-family: 'Open Sans', verdana, arial, sans-serif; font-size: 12px; fill: rgb(42, 63, 95); fill-opacity: 1; white-space: pre;">New Congestion</text><g class="layers" style="opacity: 1;"><g class="legendfill"/><g class="legendlines"/><g class="legendsymbols"><g class="legendpoints"><path class="legendundefined" d="M6,6H-6V-6H6Z" transform="translate(20,0)" style="stroke-width: 0.5px; fill: rgb(51, 133, 141); fill-opacity: 1; stroke: rgb(255, 255, 255); stroke-opacity: 1;"/></g></g></g><rect class="legendtoggle" x="0" y="-9.5" width="140.0625" height="19" style="fill: rgb(0, 0, 0); fill-opacity: 0;"/></g><g class="traces" transform="translate(142.5625,14.5)" style="opacity: 1;"><text class="legendtext" text-anchor="start" x="40" y="4.680000000000001" style="font-family: 'Open Sans', verdana, arial, sans-serif; font-size: 12px; fill: rgb(42, 63, 95); fill-opacity: 1; white-space: pre;">Already Congested</text><g class="layers" style="opacity: 1;"><g class="legendfill"/><g class="legendlines"/><g class="legendsymbols"><g class="legendpoints"><path class="legendundefined" d="M6,6H-6V-6H6Z" transform="translate(20,0)" style="stroke-width: 0.5px; fill: rgb(193, 65, 104); fill-opacity: 1; stroke: rgb(255, 255, 255); stroke-opacity: 1;"/></g></g></g><rect class="legendtoggle" x="0" y="-9.5" width="156.265625" height="19" style="fill: rgb(0, 0, 0); fill-opacity: 0;"/></g></g></g><rect class="scrollbar" rx="20" ry="3" width="0" height="0" x="0" y="0" style="fill: rgb(128, 139, 164); fill-opacity: 1;"/></g><g class="g-gtitle"><text class="gtitle" x="45" y="25" text-anchor="start" dy="0em" style="opacity: 1; font-family: 'Open Sans', verdana, arial, sans-serif; font-size: 17px; fill: rgb(42, 63, 95); fill-opacity: 1; white-space: pre;">Congestion Events by Time-of-Day (Rose Chart)</text></g><g class="g-polartitle"/></g></svg>