<svg class="main-svg" xmlns="http://www.w3.org/2000/svg" xmlns:xlink="http://www.w3.org/1999/xlink" width="900" height="450" style="" viewBox="0 0 900 450"><rect x="0" y="0" width="900" height="450" style="fill: rgb(255, 255, 255); fill-opacity: 1;"/><defs id="defs-8016fa"><g class="clips"><clipPath id="clip8016fapolar-for-traces"><path d="M163,0A163,163 0,1,0 -163,-1.9961742826101858e-14A163,163 0,1,0 163,3.9923485652203715e-14Z" transform="translate(163,163)"/></clipPath></g><g class="gradients"/><g class="patterns"/></defs><g class="bglayer"/><g class="layer-below"><g class="imagelayer"/><g class="shapelayer"/></g><g class="cartesianlayer"/><g class="polarlayer"><g class="polar"><g class="polarsublayer draglayer"/><g class="polarsublayer plotbg"><path d="M163,0A163,163 0,1,0 -163,-1.9961742826101858e-14A163,163 0,1,0 163,3.9923485652203715e-14Z" transform="translate(450,213)" style="fill: rgb(255, 255, 255); fill-opacity: 1;"/></g><g class="polarsublayer backplot"><g class="maplayer"/></g><g class="polarsublayer angular-grid" style="fill: none;"><path class="angularaxisgrid" d="M450,213L613,213" style="stroke: rgb(235, 240, 248); stroke-opacity: 1; stroke-width: 1px;"/><path class="angularaxisgrid" d="M450,213L450,50" style="stroke: rgb(235, 240, 248); stroke-opacity: 1; stroke-width: 1px;"/><path class="angularaxisgrid" d="M450,213L287,212.99999999999997" style="stroke: rgb(235, 240, 248); stroke-opacity: 1; stroke-width: 1px;"/><path class="angularaxisgrid" d="M450,213L449.99999999999994,376" style="stroke: rgb(235, 240, 248); stroke-opacity: 1; stroke-width: 1px;"/></g><g class="polarsublayer radial-grid" transform="translate(450,213)" style="fill: none;"><path class="xgrid" d="M16.91,0A16.91,16.91 0,1,0 -16.91,-2.070877737358174e-15A16.91,16.91 0,1,0 16.91,4.141755474716348e-15Z" style="stroke: rgb(235, 240, 248); stroke-opacity: 1; stroke-width: 1px;"/><path class="xgrid" d="M33.81,0A33.81,33.81 0,1,0 -33.81,-4.1405308279172014e-15A33.81,33.81 0,1,0 33.81,8.281061655834403e-15Z" style="stroke: rgb(235, 240, 248); stroke-opacity: 1; stroke-width: 1px;"/><path class="xgrid" d="M50.72,0A50.72,50.72 0,1,0 -50.72,-6.2114085652753755e-15A50.72,50.72 0,1,0 50.72,1.2422817130550751e-14Z" style="stroke: rgb(235, 240, 248); stroke-opacity: 1; stroke-width: 1px;"/><path class="xgrid" d="M67.62,0A67.62,67.62 0,1,0 -67.62,-8.281061655834403e-15A67.62,67.62 0,1,0 67.62,1.6562123311668806e-14Z" style="stroke: rgb(235, 240, 248); stroke-opacity: 1; stroke-width: 1px;"/><path class="xgrid" d="M84.53,0A84.53,84.53 0,1,0 -84.53,-1.0351939393192576e-14A84.53,84.53 0,1,0 84.53,2.0703878786385152e-14Z" style="stroke: rgb(235, 240, 248); stroke-opacity: 1; stroke-width: 1px;"/><path class="xgrid" d="M101.43,0A101.43,101.43 0,1,0 -101.43,-1.2421592483751604e-14A101.43,101.43 0,1,0 101.43,2.484318496750321e-14Z" style="stroke: rgb(235, 240, 248); stroke-opacity: 1; stroke-width: 1px;"/><path class="xgrid" d="M118.34,0A118.34,118.34 0,1,0 -118.34,-1.449247022110978e-14A118.34,118.34 0,1,0 118.34,2.898494044221956e-14Z" style="stroke: rgb(235, 240, 248); stroke-opacity: 1; stroke-width: 1px;"/><path class="xgrid" d="M135.24,0A135.24,135.24 0,1,0 -135.24,-1.6562123311668806e-14A135.24,135.24 0,1,0 135.24,3.312424662333761e-14Z" style="stroke: rgb(235, 240, 248); stroke-opacity: 1; stroke-width: 1px;"/><path class="xgrid" d="M152.15,0A152.15,152.15 0,1,0 -152.15,-1.863300104902698e-14A152.15,152.15 0,1,0 152.15,3.726600209805396e-14Z" style="stroke: rgb(235, 240, 248); stroke-opacity: 1; stroke-width: 1px;"/></g><g class="polarsublayer frontplot" transform="translate(287,50)" clip-path="url(#clip8016fapolar-for-traces)"><g class="barlayer"><g class="trace bars" style="opacity: 1;"><g class="points"><g class="point" style="vector-effect: none; stroke-miterlimit: 2;"><path d="M0,0Z" style="opacity: 1; stroke-width: 0.5px; fill: rgb(51, 133, 141); fill-opacity: 1; stroke: rgb(255, 255, 255); stroke-opacity: 1;"/></g><g class="point" style="vector-effect: none; stroke-miterlimit: 2;"><path d="M163,163L165.3847654056984,159.7176520110316A4.057205240174673,4.057205240174673 0,0,0 160.6152345943016,159.7176520110316L163,163A0,0 0,0,1 163,163Z" style="opacity: 1; stroke-width: 0.5px; fill: rgb(51, 133, 141); fill-opacity: 1; stroke: rgb(255, 255, 255); stroke-opacity: 1;"/></g><g class="point" style="vector-effect: none; stroke-miterlimit: 2;"><path d="M163,163L155.6147170248211,157.63427783717856A9.128711790393012,9.128711790393012 0,0,0 155.6147170248211,168.36572216282144L163,163A0,0 0,0,1 163,163Z" style="opacity: 1; stroke-width: 0.5px; fill: rgb(51, 133, 141); fill-opacity: 1; stroke: rgb(255, 255, 255); stroke-opacity: 1;"/></g><g class="point" style="vector-effect: none; stroke-miterlimit: 2;"><path d="M163,163L158.6279300895529,169.0176379797754A7.4382096069868995,7.4382096069868995 0,0,0 167.3720699104471,169.0176379797754L163,163A0,0 0,0,1 163,163Z" style="opacity: 1; stroke-width: 0.5px; fill: rgb(51, 133, 141); fill-opacity: 1; stroke: rgb(255, 255, 255); stroke-opacity: 1;"/></g></g></g><g class="trace bars" style="opacity: 1;"><g class="points"><g class="point" style="vector-effect: none; stroke-miterlimit: 2;"><path d="M0,0Z" style="opacity: 1; stroke-width: 0.5px; fill: rgb(193, 65, 104); fill-opacity: 1; stroke: rgb(255, 255, 255); stroke-opacity: 1;"/></g><g class="point" style="vector-effect: none; stroke-miterlimit: 2;"><path d="M165.3847654056984,159.7176520110316L206.32323820352119,103.3706782004074A73.70589519650655,73.70589519650655 0,0,0 119.67676179647881,103.3706782004074L160.6152345943016,159.7176520110316A4.057205240174673,4.057205240174673 0,0,1 165.3847654056984,159.7176520110316Z" style="opacity: 1; stroke-width: 0.5px; fill: rgb(193, 65, 104); fill-opacity: 1; stroke: rgb(255, 255, 255); stroke-opacity: 1;"/></g><g class="point" style="vector-effect: none; stroke-miterlimit: 2;"><path d="M155.6147170248211,157.63427783717856L37.72371842103941,71.98145368251052A154.85,154.85 0,0,0 37.72371842103939,254.01854631748944L155.6147170248211,168.36572216282144A9.128711790393012,9.128711790393012 0,0,1 155.6147170248211,157.63427783717856Z" style="opacity: 1; stroke-width: 0.5px; fill: rgb(193, 65, 104); fill-opacity: 1; stroke: rgb(255, 255, 255); stroke-opacity: 1;"/></g><g class="point" style="vector-effect: none; stroke-miterlimit: 2;"><path d="M158.6279300895529,169.0176379797754L136.9663109877923,198.8322988795717A44.291157205240175,44.291157205240175 0,0,0 189.03368901220767,198.8322988795717L167.3720699104471,169.0176379797754A7.4382096069868995,7.4382096069868995 0,0,1 158.6279300895529,169.0176379797754Z" style="opacity: 1; stroke-width: 0.5px; fill: rgb(193, 65, 104); fill-opacity: 1; stroke: rgb(255, 255, 255); stroke-opacity: 1;"/></g></g></g></g><g class="scatterlayer"/></g><g class="polarsublayer angular-line"><path d="M163,0A163,163 0,1,0 -163,-1.9961742826101858e-14A163,163 0,1,0 163,3.9923485652203715e-14Z" transform="translate(450,213)" stroke-width="1" style="fill: none; stroke: rgb(235, 240, 248); stroke-opacity: 1;"/></g><g class="polarsublayer radial-line"><line x1="0" y1="0" x2="163" y2="0" transform="translate(450,213)" stroke-width="1" style="fill: none; stroke: rgb(235, 240, 248); stroke-opacity: 1;"/></g><g class="polarsublayer angular-axis"><g class="angularaxistick"><text text-anchor="start" x="2.9000000000000004" y="4.199999999999999" transform="translate(613,213)" style="font-family: 'Open Sans', verdana, arial, sans-serif; font-size: 12px; fill: rgb(42, 63, 95); fill-opacity: 1; white-space: pre; opacity: 1;">Night</text></g><g class="angularaxistick"><text text-anchor="middle" x="1.7757378587636624e-16" y="-5.300000000000001" transform="translate(450,50)" style="font-family: 'Open Sans', verdana, arial, sans-serif; font-size: 12px; fill: rgb(42, 63, 95); fill-opacity: 1; white-space: pre; opacity: 1;">Morning</text></g><g class="angularaxistick"><text text-anchor="end" x="-2.9000000000000004" y="4.199999999999998" transform="translate(287,212.99999999999997)" style="font-family: 'Open Sans', verdana, arial, sans-serif; font-size: 12px; fill: rgb(42, 63, 95); fill-opacity: 1; white-space: pre; opacity: 1;">Afternoon</text></g><g class="angularaxistick"><text text-anchor="middle" x="-5.327213576290987e-16" y="14.9" transform="translate(449.99999999999994,376)" style="font-family: 'Open Sans', verdana, arial, sans-serif; font-size: 12px; fill: rgb(42, 63, 95); fill-opacity: 1; white-space: pre; opacity: 1;">Evening</text></g></g><g class="polarsublayer radial-axis" transform="translate(450,213)"><g class="xtick"><text text-anchor="start" x="0" y="14.9" transform=" rotate(90,0,8.9)" style="font-family: 'Open Sans', verdana, arial, sans-serif; font-size: 12px; fill: rgb(42, 63, 95); fill-opacity: 1; white-space: pre; opacity: 1;">0</text></g><g class="xtick"><text text-anchor="start" x="0" y="14.9" transform="translate(16.91,0) rotate(90,0,8.9)" style="font-family: 'Open Sans', verdana, arial, sans-serif; font-size: 12px; fill: rgb(42, 63, 95); fill-opacity: 1; white-space: pre; opacity: 1;">50</text></g><g class="xtick"><text text-anchor="start" x="0" y="14.9" transform="translate(33.81,0) rotate(90,0,8.9)" style="font-family: 'Open Sans', verdana, arial, sans-serif; font-size: 12px; fill: rgb(42, 63, 95); fill-opacity: 1; white-space: pre; opacity: 1;">100</text></g><g class="xtick"><text text-anchor="start" x="0" y="14.9" transform="translate(50.72,0) rotate(90,0,8.9)" style="font-family: 'Open Sans', verdana, arial, sans-serif; font-size: 12px; fill: rgb(42, 63, 95); fill-opacity: 1; white-space: pre; opacity: 1;">150</text></g><g class="xtick"><text text-anchor="start" x="0" y="14.9" transform="translate(67.62,0) rotate(90,0,8.9)" style="font-family: 'Open Sans', verdana, arial, sans-serif; font-size: 12px; fill: rgb(42, 63, 95); fill-opacity: 1; white-space: pre; opacity: 1;">200</text></g><g class="xtick"><text text-anchor="start" x="0" y="14.9" transform="translate(84.53,0) rotate(90,0,8.9)" style="font-family: 'Open Sans', verdana, arial, sans-serif; font-size: 12px; fill: rgb(42, 63, 95); fill-opacity: 1; white-space: pre; opacity: 1;">250</text></g><g class="xtick"><text text-anchor="start" x="0" y="14.9" transform="translate(101.43,0) rotate(90,0,8.9)" style="font-family: 'Open Sans', verdana, arial, sans-serif; font-size: 12px; fill: rgb(42, 63, 95); fill-opacity: 1; white-space: pre; opacity: 1;">300</text></g><g class="xtick"><text text-anchor="start" x="0" y="14.9" transform="translate(118.34,0) rotate(90,0,8.9)" style="font-family: 'Open Sans', verdana, arial, sans-serif; font-size: 12px; fill: rgb(42, 63, 95); fill-opacity: 1; white-space: pre; opacity: 1;">350</text></g><g class="xtick"><text text-anchor="start" x="0" y="14.9" transform="translate(135.24,0) rotate(90,0,8.9)" style="font-family: 'Open Sans', verdana, arial, sans-serif; font-size: 12px; fill: rgb(42, 63, 95); fill-opacity: 1; white-space: pre; opacity: 1;">400</text></g><g class="xtick"><text text-anchor="start" x="0" y="14.9" transform="translate(152.15,0) rotate(90,0,8.9)" style="font-family: 'Open Sans', verdana, arial, sans-serif; font-size: 12px; fill: rgb(42, 63, 95); fill-opacity: 1; white-space: pre; opacity: 1;">450</text></g></g></g></g><g class="smithlayer"/><g class="ternarylayer"/><g class="geolayer"/><g class="funnelarealayer"/><g class="pielayer"/><g class="iciclelayer"/><g class="treemaplayer"/><g class="sunburstlayer"/><g class="glimages"/><defs id="topdefs-8016fa"><g class="clips"/><clipPath id="legend8016fa"><rect width="302" height="29" x="0" y="0"/></clipPath></defs><g class="layer-above"><g class="imagelayer"/><g class="shapelayer"/></g><g class="infolayer"><g class="legend" pointer-events="all" transform="translate(299,408.6)"><rect class="bg" shape-rendering="crispEdges" width="302" height="29" x="0" y="0" style="stroke: rgb(68, 68, 68); stroke-opacity: 1; fill: rgb(255, 255, 255); fill-opacity: 1; stroke-width: 0px;"/><g class="scrollbox" transform="" clip-path="url(#legend8016fa)"><g class="groups"><g class="traces" transform="translate(0,14.5)" style="opacity: 1;"><text class="legendtext" text-anchor="start" x="40" y="4.680000000000001" style="font-family: 'Open Sans', verdana, arial, sans-serif; font-size: 12px; fill: rgb(42, 63, 95); fill-opacity: 1; white-space: pre;">New Congestion</text><g class="layers" style="opacity: 1;"><g class="legendfill"/><g class="legendlines"/><g class="legendsymbols"><g class="legendpoints"><path class="legendundefined" d="M6,6H-6V-6H6Z" transform="translate(20,0)" style="stroke-width: 0.5px; fill: rgb(51, 133, 141); fill-opacity: 1; stroke: rgb(255, 255, 255); stroke-opacity: 1;"/></g></g></g><rect class="legendtoggle" x="0" y="-9.5" width="140.0625" height="19" style="fill: rgb(0, 0, 0); fill-opacity: 0;"/></g><g class="traces" transform="translate(142.5625,14.5)" style="opacity: 1;"><text class="legendtext" text-anchor="start" x="40" y="4.680000000000001" style="font-family: 'Open Sans', verdana, arial, sans-serif; font-size: 12px; fill: rgb(42, 63, 95); fill-opacity: 1; white-space: pre;">Already Congested</text><g class="layers" style="opacity: 1;"><g class="legendfill"/><g class="legendlines"/><g class="legendsymbols"><g class="legendpoints"><path class="legendundefined" d="M6,6H-6V-6H6Z" transform="translate(20,0)" style="stroke-width: 0.5px; fill: rgb(193, 65, 104); fill-opacity: 1; stroke: rgb(255, 255, 255); stroke-opacity: 1;"/></g></g></g><rect class="legendtoggle" x="0" y="-9.5" width="156.265625" height="19" style="fill: rgb(0, 0, 0); fill-opacity: 0;"/></g></g></g><rect class="scrollbar" rx="20" ry="3" width="0" height="0" x="0" y="0" style="fill: rgb(128, 139, 164); fill-opacity: 1;"/></g><g class="g-gtitle"><text class="gtitle" x="45" y="25" text-anchor="start" dy="0em" style="opacity: 1; font-family: 'Open Sans', verdana, arial, sans-serif; font-size: 17px; fill: rgb(42, 63, 95); fill-opacity: 1; white-space: pre;">Congestion Events by Time-of-Day (Rose Chart)</text></g><g class="g-polartitle"/></g></svg>